# xmcd
#
# Track frame offsets: 
#        150
#        9666
#        22873
#        36918
#        50458
#        63855
#        77462
#        90582
#        104708
#        117772
#        127315
#        141637
#        155885
#        169120
#        183101
#        196844
#        211570
#        231017
#        244625
#        257964
#        271636
#
# Disc length: 3786 seconds
#
# Revision: 0
# Processed by: cddbd v1.5.1PL0 Copyright (c) Steve Scherf et al.
# Submitted via: ExactAudioCopy v0.95a5
#
DISCID=1a0ec815
DTITLE=Leadbelly - See See Rider - Blues Archive [CD 1 of 2)
DYEAR=2004
DGENRE=Blues
TTITLE0=I'm Sorry Mama
TTITLE1=Packin' Trunk
TTITLE2=Four Day Worry Blues
TTITLE3=Roberta Pt. 1
TTITLE4=Death Letter Blues Pt. 1
TTITLE5=Fort Worth And Dallas Blues
TTITLE6=Ox Drivin' Blues
TTITLE7=TB Woman Blues
TTITLE8=My Baby Quit Me
TTITLE9=Midnight Special
TTITLE10=Pigmeat
TTITLE11=Black Snake Moan
TTITLE12=See See Rider
TTITLE13=Shorty George
TTITLE14=You Don't My Mind
TTITLE15=The Bourgeois Blues
TTITLE16=John Hardy
TTITLE17=Pick A  Bale Of Cotton
TTITLE18=Grey Goose
TTITLE19=Where Did You Sleep Last Night?
TTITLE20=Pretty Flower In Your Backyard
EXTD=
EXTT0=
EXTT1=
EXTT2=
EXTT3=
EXTT4=
EXTT5=
EXTT6=
EXTT7=
EXTT8=
EXTT9=
EXTT10=
EXTT11=
EXTT12=
EXTT13=
EXTT14=
EXTT15=
EXTT16=
EXTT17=
EXTT18=
EXTT19=
EXTT20=
PLAYORDER=
